<svg width="162" height="31" viewBox="0 0 162 31" fill="none" xmlns="http://www.w3.org/2000/svg">
<path d="M0.00012207 8.98772C0.00012207 14.1201 3.38473 18 8.90572 18C14.4027 18 17.7633 14.1201 17.7633 8.98772C17.7633 3.87995 14.4027 0 8.90572 0C3.38473 0 0.00012207 3.87995 0.00012207 8.98772ZM4.51293 8.98772C4.51293 5.86903 5.9772 4.05184 8.90572 4.05184C11.8102 4.05184 13.2745 5.84447 13.2745 8.98772C13.2745 12.131 11.8343 13.9482 8.90572 13.9482C5.9772 13.9482 4.51293 12.131 4.51293 8.98772Z" fill="white"/>
<path d="M19.8241 17.6562H24.1929V12.9168H26.4973C31.8023 12.9168 34.1547 11.0996 34.1547 6.65484C34.1547 2.16098 31.8023 0.343793 26.4973 0.343793H19.8241V17.6562ZM24.1929 9.01228V4.2483H26.7614C28.8738 4.2483 29.8099 4.83765 29.8099 6.65484C29.8099 8.42292 28.8738 9.01228 26.7614 9.01228H24.1929Z" fill="white"/>
<path d="M35.9989 17.6562H69.1711V13.7517H40.3917V10.8295H67.9708V7.14597H40.3917V4.2483H69.1711V0.343793H35.9989V17.6562Z" fill="white"/>
<path d="M71.645 17.6562H76.0138V4.17463L75.1736 1.44884H76.2538L80.4306 17.6562H89.0001V0.343793H84.6313V13.8254L85.4715 16.5512H84.3913L80.2145 0.343793H71.645V17.6562Z" fill="white"/>
<path d="M0.00012207 30.809H4.38066V24.8199L3.53825 21.8049H4.62135L6.49872 30.809H14.9469L16.8724 21.8049H17.9074L17.1131 24.8199V30.809H21.4696V21.191H12.9251L11.3366 30.1951H10.2294L8.64085 21.191H0.00012207V30.809Z" fill="white"/>
<path d="M23.5596 25.9932C23.5596 28.8445 26.9533 31 32.4892 31C38.001 31 41.3706 28.8445 41.3706 25.9932C41.3706 23.1555 38.001 21 32.4892 21C26.9533 21 23.5596 23.1555 23.5596 25.9932ZM28.0846 25.9932C28.0846 24.2606 29.5528 23.251 32.4892 23.251C35.4015 23.251 36.8697 24.2469 36.8697 25.9932C36.8697 27.7394 35.4256 28.749 32.4892 28.749C29.5528 28.749 28.0846 27.7394 28.0846 25.9932Z" fill="white"/>
<path d="M45.4456 30.809H54.8565L59.574 21.191H54.9769L50.7167 30.1951H49.6336L45.3493 21.191H40.704L45.4456 30.809Z" fill="white"/>
<path d="M60.8461 21.191V23.3602H64.7212V28.6262H60.8461V30.809H72.9528V28.6262H69.0777V23.3602H72.9528V21.191H60.8461Z" fill="white"/>
<path d="M75.4975 30.809H89.0001V28.6398H79.9021V27.0164H87.7967V24.97H79.9021V23.3602H89.0001V21.191H75.4975V30.809Z" fill="white"/>
<path d="M103 24H107.62L108.999 18.8638H115.917L117.296 24H121.964L117.199 7H107.741L103 24ZM110.039 15.0298L111.902 8.08511H112.99L114.877 15.0298H110.039Z" fill="white"/>
<path d="M123.298 24H127.7V19.3461H130.022C135.368 19.3461 137.739 17.5617 137.739 13.1972C137.739 8.7844 135.368 7 130.022 7H123.298V24ZM127.7 15.5121V10.834H130.288C132.417 10.834 133.36 11.4128 133.36 13.1972C133.36 14.9333 132.417 15.5121 130.288 15.5121H127.7Z" fill="white"/>
<path d="M138.833 7V10.834H142.728V20.1418H138.833V24H151V20.1418H147.106V10.834H151V7H138.833Z" fill="white"/>
<rect x="95.0001" y="1" width="66" height="29" rx="14.5" stroke="url(#paint0_radial_96_674)" stroke-width="2"/>
<defs>
<radialGradient id="paint0_radial_96_674" cx="0" cy="0" r="1" gradientUnits="userSpaceOnUse" gradientTransform="translate(170.369 14.4807) rotate(180) scale(87.8769 115.78)">
<stop stop-color="#02D0E0"/>
<stop offset="0.469538" stop-color="#050BE3"/>
<stop offset="1" stop-color="#D402E6"/>
</radialGradient>
</defs>
</svg>
